<svg width="8" height="13" viewBox="0 0 8 13" fill="#737373" xmlns="http://www.w3.org/2000/svg">
<path d="M3.72533 10.8667L6.30867 8.28333C6.442 8.15 6.59756 8.08333 6.77533 8.08333C6.95311 8.08333 7.10867 8.15 7.242 8.28333C7.37533 8.41667 7.442 8.575 7.442 8.75833C7.442 8.94167 7.37533 9.1 7.242 9.23333L4.67533 11.8167C4.41978 12.0722 4.10311 12.2 3.72533 12.2C3.34756 12.2 3.03089 12.0722 2.77533 11.8167L0.192 9.23333C0.0586667 9.1 -0.00522222 8.94167 0.000333333 8.75833C0.00588889 8.575 0.0753333 8.41667 0.208667 8.28333C0.342 8.15 0.500333 8.08333 0.683667 8.08333C0.867 8.08333 1.02533 8.15 1.15867 8.28333L3.72533 10.8667ZM3.72533 1.33333L1.15867 3.9C1.02533 4.03333 0.869778 4.09722 0.692 4.09167C0.514222 4.08611 0.358667 4.02222 0.225333 3.9C0.092 3.76667 0.0225556 3.60833 0.017 3.425C0.0114444 3.24167 0.0753333 3.08333 0.208667 2.95L2.77533 0.383333C3.03089 0.127778 3.34756 0 3.72533 0C4.10311 0 4.41978 0.127778 4.67533 0.383333L7.242 2.95C7.37533 3.08333 7.43922 3.24167 7.43367 3.425C7.42811 3.60833 7.35867 3.76667 7.22533 3.9C7.092 4.02222 6.93644 4.08611 6.75867 4.09167C6.58089 4.09722 6.42533 4.03333 6.292 3.9L3.72533 1.33333Z" fill="#737373" fill-opacity="0.5"/>
</svg>
