<svg width="32" height="32" viewBox="0 0 32 32" fill="none" xmlns="http://www.w3.org/2000/svg">
<g mask="url(#mask0_386_30753)">
<path d="M22.3192 19.4149V12.5532C22.3192 12.2996 22.1915 12.1298 21.9362 12.0438C21.6809 11.9579 21.4681 12 21.2979 12.1702L18.2979 15.1702C18.0638 15.4043 17.9468 15.6809 17.9468 16C17.9468 16.3191 18.0638 16.5957 18.2979 16.8298L21.2979 19.8298C21.4681 20 21.6809 20.0421 21.9362 19.9562C22.1915 19.8702 22.3192 19.6898 22.3192 19.4149ZM6.32979 28C5.67553 28 5.12372 27.7752 4.67436 27.3256C4.22479 26.8763 4 26.3245 4 25.6702V6.32979C4 5.67553 4.22479 5.12362 4.67436 4.67404C5.12372 4.22468 5.67553 4 6.32979 4H25.6702C26.3245 4 26.8764 4.22468 27.326 4.67404C27.7753 5.12362 28 5.67553 28 6.32979V25.6702C28 26.3245 27.7753 26.8763 27.326 27.3256C26.8764 27.7752 26.3245 28 25.6702 28H6.32979ZM13.3511 24.6702C13.3511 25.2225 13.7988 25.6702 14.3511 25.6702H24.6702C25.2225 25.6702 25.6702 25.2225 25.6702 24.6702V7.32979C25.6702 6.7775 25.2225 6.32979 24.6702 6.32979H14.3511C13.7988 6.32979 13.3511 6.7775 13.3511 7.32979V24.6702Z" fill="#737373"/>
</g>
</svg>
